<svg xmlns="http://www.w3.org/2000/svg" xmlns:xlink="http://www.w3.org/1999/xlink" width="1920" zoomAndPan="magnify" viewBox="0 0 1440 809.999993" height="1080" preserveAspectRatio="xMidYMid meet" version="1.0"><defs><g/><clipPath id="7055c86ce1"><path d="M 284 157.414062 L 509 157.414062 L 509 527.164062 L 284 527.164062 Z M 284 157.414062 " clip-rule="nonzero"/></clipPath><clipPath id="8234fc3289"><path d="M 475 157.414062 L 635.683594 157.414062 L 635.683594 391 L 475 391 Z M 475 157.414062 " clip-rule="nonzero"/></clipPath><clipPath id="b6503b7a81"><path d="M 184 308 L 450.75 308 L 450.75 527.164062 L 184 527.164062 Z M 184 308 " clip-rule="nonzero"/></clipPath><clipPath id="0f70da0783"><path d="M 81 157.414062 L 439 157.414062 L 439 491 L 81 491 Z M 81 157.414062 " clip-rule="nonzero"/></clipPath><clipPath id="571651974f"><rect x="0" width="321" y="0" height="84"/></clipPath><clipPath id="481f0e2aba"><path d="M 953.65625 326 L 1358.65625 326 L 1358.65625 527.164062 L 953.65625 527.164062 Z M 953.65625 326 " clip-rule="nonzero"/></clipPath><clipPath id="18bf01f9bf"><path d="M 953.65625 157.414062 L 1322 157.414062 L 1322 351 L 953.65625 351 Z M 953.65625 157.414062 " clip-rule="nonzero"/></clipPath><clipPath id="d07bbc25d8"><path d="M 879 308 L 1146.144531 308 L 1146.144531 527.164062 L 879 527.164062 Z M 879 308 " clip-rule="nonzero"/></clipPath><clipPath id="88a7fa531d"><path d="M 776.394531 157.414062 L 1134 157.414062 L 1134 491 L 776.394531 491 Z M 776.394531 157.414062 " clip-rule="nonzero"/></clipPath><clipPath id="ea6ec7273e"><rect x="0" width="387" y="0" height="84"/></clipPath></defs><g clip-path="url(#7055c86ce1)"><path fill="#2f3640" d="M 426.699219 250.097656 L 508.941406 424.050781 L 507.324219 427.171875 L 459.640625 527.28125 L 284.070312 157.414062 L 382.566406 157.414062 Z M 426.699219 250.097656 " fill-opacity="1" fill-rule="nonzero"/></g><g clip-path="url(#8234fc3289)"><path fill="#3dd4ff" d="M 635.636719 157.84375 L 534.453125 371.195312 L 524.980469 390.574219 L 475.679688 286.265625 L 477.292969 283.144531 L 536.496094 157.84375 C 536.496094 157.84375 635.636719 157.84375 635.636719 157.84375 Z M 635.636719 157.84375 " fill-opacity="1" fill-rule="nonzero"/></g><g clip-path="url(#b6503b7a81)"><path fill="#2f3640" d="M 447.703125 308.160156 C 449.773438 319.242188 450.871094 330.667969 450.871094 342.351562 C 450.871094 444.46875 368.054688 527.289062 265.933594 527.289062 C 236.730469 527.289062 209.105469 520.503906 184.546875 508.4375 C 196.445312 478.578125 213.351562 450.832031 234.351562 426.011719 C 244.171875 429.722656 254.816406 431.757812 265.933594 431.757812 C 315.304688 431.757812 355.339844 391.71875 355.339844 342.351562 C 355.339844 340.214844 355.261719 338.101562 355.113281 336.003906 C 383.898438 323.042969 414.992188 313.558594 447.703125 308.160156 Z M 447.703125 308.160156 " fill-opacity="1" fill-rule="evenodd"/></g><g clip-path="url(#0f70da0783)"><path fill="#f0acff" d="M 265.933594 157.414062 C 344.46875 157.414062 411.574219 206.394531 438.390625 275.464844 C 406.03125 281.128906 375.128906 290.492188 346.25 303.042969 C 331.699219 273.375 301.199219 252.945312 265.933594 252.945312 C 216.566406 252.945312 176.527344 292.980469 176.527344 342.351562 C 176.527344 368.367188 187.652344 391.789062 205.394531 408.128906 C 184.757812 433.214844 167.832031 460.917969 155.355469 490.585938 C 110.222656 456.859375 81 403.011719 81 342.351562 C 81 240.230469 163.816406 157.414062 265.933594 157.414062 Z M 265.933594 157.414062 " fill-opacity="1" fill-rule="evenodd"/></g><g transform="matrix(1, 0, 0, 1, 173, 569)"><g clip-path="url(#571651974f)"><g fill="#2f3640" fill-opacity="1"><g transform="translate(0.557102, 65.695)"><g><path d="M 28.828125 0.40625 C 24.078125 0.40625 19.765625 -0.65625 15.890625 -2.78125 C 12.023438 -4.90625 9.003906 -7.820312 6.828125 -11.53125 C 4.648438 -15.238281 3.5625 -19.40625 3.5625 -24.03125 C 3.5625 -28.65625 4.648438 -32.820312 6.828125 -36.53125 C 9.003906 -40.238281 12.023438 -43.15625 15.890625 -45.28125 C 19.765625 -47.40625 24.078125 -48.46875 28.828125 -48.46875 C 33.585938 -48.46875 37.878906 -47.414062 41.703125 -45.3125 C 45.523438 -43.207031 48.535156 -40.289062 50.734375 -36.5625 C 52.929688 -32.832031 54.03125 -28.65625 54.03125 -24.03125 C 54.03125 -19.40625 52.929688 -15.226562 50.734375 -11.5 C 48.535156 -7.769531 45.523438 -4.851562 41.703125 -2.75 C 37.878906 -0.644531 33.585938 0.40625 28.828125 0.40625 Z M 28.828125 -4.125 C 32.628906 -4.125 36.0625 -4.976562 39.125 -6.6875 C 42.195312 -8.40625 44.601562 -10.785156 46.34375 -13.828125 C 48.082031 -16.878906 48.953125 -20.28125 48.953125 -24.03125 C 48.953125 -27.78125 48.082031 -31.175781 46.34375 -34.21875 C 44.601562 -37.269531 42.195312 -39.648438 39.125 -41.359375 C 36.0625 -43.078125 32.628906 -43.9375 28.828125 -43.9375 C 25.035156 -43.9375 21.59375 -43.078125 18.5 -41.359375 C 15.414062 -39.648438 12.988281 -37.269531 11.21875 -34.21875 C 9.457031 -31.175781 8.578125 -27.78125 8.578125 -24.03125 C 8.578125 -20.28125 9.457031 -16.878906 11.21875 -13.828125 C 12.988281 -10.785156 15.414062 -8.40625 18.5 -6.6875 C 21.59375 -4.976562 25.035156 -4.125 28.828125 -4.125 Z M 28.828125 -4.125 "/></g></g></g><g fill="#2f3640" fill-opacity="1"><g transform="translate(58.157265, 65.695)"><g><path d="M 51.828125 -36.390625 C 56.359375 -36.390625 59.914062 -35.082031 62.5 -32.46875 C 65.09375 -29.863281 66.390625 -26.019531 66.390625 -20.9375 L 66.390625 0 L 61.515625 0 L 61.515625 -20.453125 C 61.515625 -24.210938 60.609375 -27.078125 58.796875 -29.046875 C 56.992188 -31.015625 54.445312 -32 51.15625 -32 C 47.394531 -32 44.4375 -30.84375 42.28125 -28.53125 C 40.132812 -26.21875 39.0625 -23.023438 39.0625 -18.953125 L 39.0625 0 L 34.1875 0 L 34.1875 -20.453125 C 34.1875 -24.210938 33.28125 -27.078125 31.46875 -29.046875 C 29.664062 -31.015625 27.09375 -32 23.75 -32 C 20.039062 -32 17.097656 -30.84375 14.921875 -28.53125 C 12.753906 -26.21875 11.671875 -23.023438 11.671875 -18.953125 L 11.671875 0 L 6.796875 0 L 6.796875 -36.109375 L 11.46875 -36.109375 L 11.46875 -29.515625 C 12.75 -31.710938 14.53125 -33.40625 16.8125 -34.59375 C 19.101562 -35.789062 21.738281 -36.390625 24.71875 -36.390625 C 27.738281 -36.390625 30.359375 -35.75 32.578125 -34.46875 C 34.796875 -33.1875 36.457031 -31.285156 37.5625 -28.765625 C 38.882812 -31.148438 40.789062 -33.015625 43.28125 -34.359375 C 45.78125 -35.710938 48.628906 -36.390625 51.828125 -36.390625 Z M 51.828125 -36.390625 "/></g></g></g><g fill="#2f3640" fill-opacity="1"><g transform="translate(130.99848, 65.695)"><g><path d="M 25.203125 -36.390625 C 29.734375 -36.390625 33.335938 -35.070312 36.015625 -32.4375 C 38.691406 -29.8125 40.03125 -25.976562 40.03125 -20.9375 L 40.03125 0 L 35.15625 0 L 35.15625 -20.453125 C 35.15625 -24.210938 34.210938 -27.078125 32.328125 -29.046875 C 30.453125 -31.015625 27.773438 -32 24.296875 -32 C 20.410156 -32 17.332031 -30.84375 15.0625 -28.53125 C 12.800781 -26.21875 11.671875 -23.023438 11.671875 -18.953125 L 11.671875 0 L 6.796875 0 L 6.796875 -36.109375 L 11.46875 -36.109375 L 11.46875 -29.453125 C 12.789062 -31.648438 14.628906 -33.351562 16.984375 -34.5625 C 19.347656 -35.78125 22.085938 -36.390625 25.203125 -36.390625 Z M 25.203125 -36.390625 "/></g></g></g><g fill="#2f3640" fill-opacity="1"><g transform="translate(176.790255, 65.695)"><g><path d="M 37.140625 -36.109375 L 19.09375 4.328125 C 17.625 7.710938 15.925781 10.113281 14 11.53125 C 12.082031 12.945312 9.773438 13.65625 7.078125 13.65625 C 5.335938 13.65625 3.710938 13.378906 2.203125 12.828125 C 0.691406 12.285156 -0.613281 11.460938 -1.71875 10.359375 L 0.546875 6.734375 C 2.378906 8.554688 4.578125 9.46875 7.140625 9.46875 C 8.785156 9.46875 10.191406 9.007812 11.359375 8.09375 C 12.523438 7.1875 13.613281 5.632812 14.625 3.4375 L 16.203125 -0.0625 L 0.0625 -36.109375 L 5.15625 -36.109375 L 18.75 -5.421875 L 32.34375 -36.109375 Z M 37.140625 -36.109375 "/></g></g></g><g fill="#2f3640" fill-opacity="1"><g transform="translate(214.000383, 65.695)"><g><path d="M 47.78125 -48.0625 L 26.5 0 L 21.484375 0 L 0.203125 -48.0625 L 5.703125 -48.0625 L 24.09375 -6.3125 L 42.640625 -48.0625 Z M 47.78125 -48.0625 "/></g></g></g><g fill="#2f3640" fill-opacity="1"><g transform="translate(260.684646, 65.695)"><g><path d="M 6.796875 -36.109375 L 11.671875 -36.109375 L 11.671875 0 L 6.796875 0 Z M 9.265625 -44.015625 C 8.253906 -44.015625 7.40625 -44.351562 6.71875 -45.03125 C 6.03125 -45.71875 5.6875 -46.546875 5.6875 -47.515625 C 5.6875 -48.429688 6.03125 -49.226562 6.71875 -49.90625 C 7.40625 -50.59375 8.253906 -50.9375 9.265625 -50.9375 C 10.265625 -50.9375 11.109375 -50.601562 11.796875 -49.9375 C 12.484375 -49.28125 12.828125 -48.492188 12.828125 -47.578125 C 12.828125 -46.566406 12.484375 -45.71875 11.796875 -45.03125 C 11.109375 -44.351562 10.265625 -44.015625 9.265625 -44.015625 Z M 9.265625 -44.015625 "/></g></g></g><g fill="#2f3640" fill-opacity="1"><g transform="translate(279.15238, 65.695)"><g><path d="M 19.4375 -36.390625 C 24.144531 -36.390625 27.753906 -35.207031 30.265625 -32.84375 C 32.785156 -30.488281 34.046875 -27 34.046875 -22.375 L 34.046875 0 L 29.390625 0 L 29.390625 -5.625 C 28.285156 -3.75 26.671875 -2.285156 24.546875 -1.234375 C 22.421875 -0.179688 19.890625 0.34375 16.953125 0.34375 C 12.929688 0.34375 9.726562 -0.613281 7.34375 -2.53125 C 4.96875 -4.457031 3.78125 -7 3.78125 -10.15625 C 3.78125 -13.226562 4.890625 -15.703125 7.109375 -17.578125 C 9.328125 -19.453125 12.863281 -20.390625 17.71875 -20.390625 L 29.171875 -20.390625 L 29.171875 -22.59375 C 29.171875 -25.695312 28.300781 -28.0625 26.5625 -29.6875 C 24.832031 -31.3125 22.296875 -32.125 18.953125 -32.125 C 16.660156 -32.125 14.460938 -31.742188 12.359375 -30.984375 C 10.253906 -30.234375 8.445312 -29.195312 6.9375 -27.875 L 4.734375 -31.515625 C 6.566406 -33.066406 8.765625 -34.265625 11.328125 -35.109375 C 13.890625 -35.960938 16.59375 -36.390625 19.4375 -36.390625 Z M 17.71875 -3.5 C 20.457031 -3.5 22.8125 -4.128906 24.78125 -5.390625 C 26.75 -6.648438 28.210938 -8.46875 29.171875 -10.84375 L 29.171875 -16.75 L 17.84375 -16.75 C 11.664062 -16.75 8.578125 -14.597656 8.578125 -10.296875 C 8.578125 -8.191406 9.378906 -6.53125 10.984375 -5.3125 C 12.585938 -4.101562 14.832031 -3.5 17.71875 -3.5 Z M 17.71875 -3.5 "/></g></g></g></g></g><g clip-path="url(#481f0e2aba)"><path fill="#3dd4ff" d="M 1323.5 336.953125 C 1323.550781 338.746094 1323.574219 340.542969 1323.574219 342.347656 C 1323.574219 393.246094 1302.785156 439.484375 1269.28125 472.988281 C 1235.78125 506.484375 1189.539062 527.28125 1138.644531 527.28125 L 953.710938 527.28125 L 953.710938 434.976562 C 1050.925781 346.078125 1204.109375 306.71875 1358.941406 336.539062 C 1347.039062 336.273438 1335.21875 336.425781 1323.5 336.953125 Z M 1039.363281 449.457031 L 1138.644531 449.457031 C 1168.058594 449.457031 1194.828125 437.394531 1214.257812 417.960938 C 1232.789062 399.433594 1244.613281 374.234375 1245.671875 346.433594 C 1165.246094 362.683594 1093.199219 398.199219 1039.363281 449.457031 Z M 1039.363281 449.457031 " fill-opacity="1" fill-rule="nonzero"/></g><g clip-path="url(#18bf01f9bf)"><path fill="#2f3640" d="M 992.625 157.414062 L 1138.644531 157.414062 C 1189.539062 157.414062 1235.78125 178.207031 1269.28125 211.707031 C 1296.816406 239.238281 1315.761719 275.375 1321.640625 315.628906 C 1294.671875 309.871094 1266.679688 305.753906 1238.34375 303.359375 C 1232.882812 289.539062 1224.617188 277.09375 1214.257812 266.734375 C 1194.828125 247.300781 1168.058594 235.238281 1138.644531 235.238281 L 1031.535156 235.238281 L 1031.535156 297.792969 C 1077.035156 293.929688 1124.847656 294.921875 1173.28125 301.839844 C 1093.246094 304.355469 1016.835938 320.757812 953.710938 350.777344 L 953.710938 157.414062 Z M 992.625 157.414062 " fill-opacity="1" fill-rule="nonzero"/></g><g clip-path="url(#d07bbc25d8)"><path fill="#2f3640" d="M 1143.097656 308.160156 C 1145.171875 319.242188 1146.265625 330.667969 1146.265625 342.351562 C 1146.265625 444.46875 1063.449219 527.289062 961.328125 527.289062 C 932.125 527.289062 904.503906 520.503906 879.941406 508.4375 C 891.839844 478.578125 908.746094 450.832031 929.75 426.011719 C 939.570312 429.722656 950.210938 431.757812 961.328125 431.757812 C 1010.699219 431.757812 1050.734375 391.71875 1050.734375 342.351562 C 1050.734375 340.214844 1050.65625 338.101562 1050.507812 336.003906 C 1079.292969 323.042969 1110.386719 313.558594 1143.097656 308.160156 Z M 1143.097656 308.160156 " fill-opacity="1" fill-rule="evenodd"/></g><g clip-path="url(#88a7fa531d)"><path fill="#f0acff" d="M 961.328125 157.414062 C 1039.863281 157.414062 1106.96875 206.394531 1133.785156 275.464844 C 1101.425781 281.128906 1070.527344 290.492188 1041.648438 303.042969 C 1027.09375 273.375 996.59375 252.945312 961.328125 252.945312 C 911.960938 252.945312 871.925781 292.980469 871.925781 342.351562 C 871.925781 368.367188 883.046875 391.789062 900.789062 408.128906 C 880.152344 433.214844 863.226562 460.917969 850.75 490.585938 C 805.617188 456.859375 776.394531 403.011719 776.394531 342.351562 C 776.394531 240.230469 859.210938 157.414062 961.328125 157.414062 Z M 961.328125 157.414062 " fill-opacity="1" fill-rule="evenodd"/></g><g transform="matrix(1, 0, 0, 1, 866, 569)"><g clip-path="url(#ea6ec7273e)"><g fill="#2f3640" fill-opacity="1"><g transform="translate(0.430256, 65.691953)"><g><path d="M 28.828125 0.40625 C 24.078125 0.40625 19.765625 -0.65625 15.890625 -2.78125 C 12.023438 -4.90625 9.003906 -7.820312 6.828125 -11.53125 C 4.648438 -15.238281 3.5625 -19.40625 3.5625 -24.03125 C 3.5625 -28.65625 4.648438 -32.820312 6.828125 -36.53125 C 9.003906 -40.238281 12.023438 -43.15625 15.890625 -45.28125 C 19.765625 -47.40625 24.078125 -48.46875 28.828125 -48.46875 C 33.585938 -48.46875 37.878906 -47.414062 41.703125 -45.3125 C 45.523438 -43.207031 48.535156 -40.289062 50.734375 -36.5625 C 52.929688 -32.832031 54.03125 -28.65625 54.03125 -24.03125 C 54.03125 -19.40625 52.929688 -15.226562 50.734375 -11.5 C 48.535156 -7.769531 45.523438 -4.851562 41.703125 -2.75 C 37.878906 -0.644531 33.585938 0.40625 28.828125 0.40625 Z M 28.828125 -4.125 C 32.628906 -4.125 36.0625 -4.976562 39.125 -6.6875 C 42.195312 -8.40625 44.601562 -10.785156 46.34375 -13.828125 C 48.082031 -16.878906 48.953125 -20.28125 48.953125 -24.03125 C 48.953125 -27.78125 48.082031 -31.175781 46.34375 -34.21875 C 44.601562 -37.269531 42.195312 -39.648438 39.125 -41.359375 C 36.0625 -43.078125 32.628906 -43.9375 28.828125 -43.9375 C 25.035156 -43.9375 21.59375 -43.078125 18.5 -41.359375 C 15.414062 -39.648438 12.988281 -37.269531 11.21875 -34.21875 C 9.457031 -31.175781 8.578125 -27.78125 8.578125 -24.03125 C 8.578125 -20.28125 9.457031 -16.878906 11.21875 -13.828125 C 12.988281 -10.785156 15.414062 -8.40625 18.5 -6.6875 C 21.59375 -4.976562 25.035156 -4.125 28.828125 -4.125 Z M 28.828125 -4.125 "/></g></g></g><g fill="#2f3640" fill-opacity="1"><g transform="translate(58.030419, 65.691953)"><g><path d="M 51.828125 -36.390625 C 56.359375 -36.390625 59.914062 -35.082031 62.5 -32.46875 C 65.09375 -29.863281 66.390625 -26.019531 66.390625 -20.9375 L 66.390625 0 L 61.515625 0 L 61.515625 -20.453125 C 61.515625 -24.210938 60.609375 -27.078125 58.796875 -29.046875 C 56.992188 -31.015625 54.445312 -32 51.15625 -32 C 47.394531 -32 44.4375 -30.84375 42.28125 -28.53125 C 40.132812 -26.21875 39.0625 -23.023438 39.0625 -18.953125 L 39.0625 0 L 34.1875 0 L 34.1875 -20.453125 C 34.1875 -24.210938 33.28125 -27.078125 31.46875 -29.046875 C 29.664062 -31.015625 27.09375 -32 23.75 -32 C 20.039062 -32 17.097656 -30.84375 14.921875 -28.53125 C 12.753906 -26.21875 11.671875 -23.023438 11.671875 -18.953125 L 11.671875 0 L 6.796875 0 L 6.796875 -36.109375 L 11.46875 -36.109375 L 11.46875 -29.515625 C 12.75 -31.710938 14.53125 -33.40625 16.8125 -34.59375 C 19.101562 -35.789062 21.738281 -36.390625 24.71875 -36.390625 C 27.738281 -36.390625 30.359375 -35.75 32.578125 -34.46875 C 34.796875 -33.1875 36.457031 -31.285156 37.5625 -28.765625 C 38.882812 -31.148438 40.789062 -33.015625 43.28125 -34.359375 C 45.78125 -35.710938 48.628906 -36.390625 51.828125 -36.390625 Z M 51.828125 -36.390625 "/></g></g></g><g fill="#2f3640" fill-opacity="1"><g transform="translate(130.871634, 65.691953)"><g><path d="M 25.203125 -36.390625 C 29.734375 -36.390625 33.335938 -35.070312 36.015625 -32.4375 C 38.691406 -29.8125 40.03125 -25.976562 40.03125 -20.9375 L 40.03125 0 L 35.15625 0 L 35.15625 -20.453125 C 35.15625 -24.210938 34.210938 -27.078125 32.328125 -29.046875 C 30.453125 -31.015625 27.773438 -32 24.296875 -32 C 20.410156 -32 17.332031 -30.84375 15.0625 -28.53125 C 12.800781 -26.21875 11.671875 -23.023438 11.671875 -18.953125 L 11.671875 0 L 6.796875 0 L 6.796875 -36.109375 L 11.46875 -36.109375 L 11.46875 -29.453125 C 12.789062 -31.648438 14.628906 -33.351562 16.984375 -34.5625 C 19.347656 -35.78125 22.085938 -36.390625 25.203125 -36.390625 Z M 25.203125 -36.390625 "/></g></g></g><g fill="#2f3640" fill-opacity="1"><g transform="translate(176.663408, 65.691953)"><g><path d="M 37.140625 -36.109375 L 19.09375 4.328125 C 17.625 7.710938 15.925781 10.113281 14 11.53125 C 12.082031 12.945312 9.773438 13.65625 7.078125 13.65625 C 5.335938 13.65625 3.710938 13.378906 2.203125 12.828125 C 0.691406 12.285156 -0.613281 11.460938 -1.71875 10.359375 L 0.546875 6.734375 C 2.378906 8.554688 4.578125 9.46875 7.140625 9.46875 C 8.785156 9.46875 10.191406 9.007812 11.359375 8.09375 C 12.523438 7.1875 13.613281 5.632812 14.625 3.4375 L 16.203125 -0.0625 L 0.0625 -36.109375 L 5.15625 -36.109375 L 18.75 -5.421875 L 32.34375 -36.109375 Z M 37.140625 -36.109375 "/></g></g></g><g fill="#2f3640" fill-opacity="1"><g transform="translate(213.873536, 65.691953)"><g><path d="M 7.828125 -48.0625 L 27.390625 -48.0625 C 32.472656 -48.0625 36.957031 -47.039062 40.84375 -45 C 44.738281 -42.96875 47.757812 -40.128906 49.90625 -36.484375 C 52.0625 -32.847656 53.140625 -28.695312 53.140625 -24.03125 C 53.140625 -19.363281 52.0625 -15.207031 49.90625 -11.5625 C 47.757812 -7.925781 44.738281 -5.085938 40.84375 -3.046875 C 36.957031 -1.015625 32.472656 0 27.390625 0 L 7.828125 0 Z M 27.125 -4.390625 C 31.332031 -4.390625 35.015625 -5.222656 38.171875 -6.890625 C 41.328125 -8.566406 43.773438 -10.878906 45.515625 -13.828125 C 47.253906 -16.785156 48.125 -20.1875 48.125 -24.03125 C 48.125 -27.875 47.253906 -31.269531 45.515625 -34.21875 C 43.773438 -37.175781 41.328125 -39.488281 38.171875 -41.15625 C 35.015625 -42.832031 31.332031 -43.671875 27.125 -43.671875 L 12.90625 -43.671875 L 12.90625 -4.390625 Z M 27.125 -4.390625 "/></g></g></g><g fill="#2f3640" fill-opacity="1"><g transform="translate(270.58121, 65.691953)"><g><path d="M 21.5625 0.34375 C 18.082031 0.34375 14.945312 -0.441406 12.15625 -2.015625 C 9.363281 -3.597656 7.164062 -5.785156 5.5625 -8.578125 C 3.957031 -11.367188 3.15625 -14.53125 3.15625 -18.0625 C 3.15625 -21.582031 3.957031 -24.738281 5.5625 -27.53125 C 7.164062 -30.320312 9.363281 -32.492188 12.15625 -34.046875 C 14.945312 -35.609375 18.082031 -36.390625 21.5625 -36.390625 C 25.039062 -36.390625 28.175781 -35.609375 30.96875 -34.046875 C 33.757812 -32.492188 35.941406 -30.320312 37.515625 -27.53125 C 39.097656 -24.738281 39.890625 -21.582031 39.890625 -18.0625 C 39.890625 -14.53125 39.097656 -11.367188 37.515625 -8.578125 C 35.941406 -5.785156 33.757812 -3.597656 30.96875 -2.015625 C 28.175781 -0.441406 25.039062 0.34375 21.5625 0.34375 Z M 21.5625 -3.984375 C 24.125 -3.984375 26.421875 -4.566406 28.453125 -5.734375 C 30.492188 -6.898438 32.085938 -8.554688 33.234375 -10.703125 C 34.378906 -12.859375 34.953125 -15.3125 34.953125 -18.0625 C 34.953125 -20.800781 34.378906 -23.242188 33.234375 -25.390625 C 32.085938 -27.546875 30.492188 -29.207031 28.453125 -30.375 C 26.421875 -31.539062 24.125 -32.125 21.5625 -32.125 C 19 -32.125 16.695312 -31.539062 14.65625 -30.375 C 12.625 -29.207031 11.019531 -27.546875 9.84375 -25.390625 C 8.675781 -23.242188 8.09375 -20.800781 8.09375 -18.0625 C 8.09375 -15.3125 8.675781 -12.859375 9.84375 -10.703125 C 11.019531 -8.554688 12.625 -6.898438 14.65625 -5.734375 C 16.695312 -4.566406 19 -3.984375 21.5625 -3.984375 Z M 21.5625 -3.984375 "/></g></g></g><g fill="#2f3640" fill-opacity="1"><g transform="translate(313.626885, 65.691953)"><g><path d="M 21.765625 0.34375 C 18.191406 0.34375 15 -0.429688 12.1875 -1.984375 C 9.375 -3.546875 7.164062 -5.734375 5.5625 -8.546875 C 3.957031 -11.359375 3.15625 -14.53125 3.15625 -18.0625 C 3.15625 -21.582031 3.957031 -24.738281 5.5625 -27.53125 C 7.164062 -30.320312 9.375 -32.492188 12.1875 -34.046875 C 15 -35.609375 18.191406 -36.390625 21.765625 -36.390625 C 24.878906 -36.390625 27.660156 -35.78125 30.109375 -34.5625 C 32.554688 -33.351562 34.488281 -31.582031 35.90625 -29.25 L 32.265625 -26.78125 C 31.078125 -28.5625 29.566406 -29.894531 27.734375 -30.78125 C 25.898438 -31.675781 23.910156 -32.125 21.765625 -32.125 C 19.148438 -32.125 16.800781 -31.539062 14.71875 -30.375 C 12.644531 -29.207031 11.019531 -27.546875 9.84375 -25.390625 C 8.675781 -23.242188 8.09375 -20.800781 8.09375 -18.0625 C 8.09375 -15.269531 8.675781 -12.804688 9.84375 -10.671875 C 11.019531 -8.546875 12.644531 -6.898438 14.71875 -5.734375 C 16.800781 -4.566406 19.148438 -3.984375 21.765625 -3.984375 C 23.910156 -3.984375 25.898438 -4.414062 27.734375 -5.28125 C 29.566406 -6.15625 31.078125 -7.484375 32.265625 -9.265625 L 35.90625 -6.796875 C 34.488281 -4.460938 32.539062 -2.6875 30.0625 -1.46875 C 27.59375 -0.257812 24.828125 0.34375 21.765625 0.34375 Z M 21.765625 0.34375 "/></g></g></g><g fill="#2f3640" fill-opacity="1"><g transform="translate(352.2787, 65.691953)"><g><path d="M 16.484375 0.34375 C 13.546875 0.34375 10.738281 -0.078125 8.0625 -0.921875 C 5.382812 -1.773438 3.289062 -2.84375 1.78125 -4.125 L 3.984375 -7.96875 C 5.492188 -6.769531 7.390625 -5.789062 9.671875 -5.03125 C 11.960938 -4.28125 14.347656 -3.90625 16.828125 -3.90625 C 20.117188 -3.90625 22.550781 -4.421875 24.125 -5.453125 C 25.707031 -6.484375 26.5 -7.9375 26.5 -9.8125 C 26.5 -11.144531 26.0625 -12.1875 25.1875 -12.9375 C 24.320312 -13.695312 23.222656 -14.269531 21.890625 -14.65625 C 20.566406 -15.039062 18.804688 -15.421875 16.609375 -15.796875 C 13.679688 -16.335938 11.320312 -16.894531 9.53125 -17.46875 C 7.75 -18.039062 6.226562 -19.015625 4.96875 -20.390625 C 3.71875 -21.765625 3.09375 -23.664062 3.09375 -26.09375 C 3.09375 -29.113281 4.347656 -31.582031 6.859375 -33.5 C 9.378906 -35.425781 12.882812 -36.390625 17.375 -36.390625 C 19.707031 -36.390625 22.039062 -36.078125 24.375 -35.453125 C 26.707031 -34.835938 28.628906 -34.03125 30.140625 -33.03125 L 28.015625 -29.109375 C 25.035156 -31.171875 21.488281 -32.203125 17.375 -32.203125 C 14.257812 -32.203125 11.910156 -31.648438 10.328125 -30.546875 C 8.753906 -29.453125 7.96875 -28.015625 7.96875 -26.234375 C 7.96875 -24.859375 8.410156 -23.757812 9.296875 -22.9375 C 10.191406 -22.113281 11.300781 -21.503906 12.625 -21.109375 C 13.957031 -20.722656 15.789062 -20.320312 18.125 -19.90625 C 21.007812 -19.363281 23.320312 -18.816406 25.0625 -18.265625 C 26.800781 -17.710938 28.285156 -16.769531 29.515625 -15.4375 C 30.753906 -14.113281 31.375 -12.285156 31.375 -9.953125 C 31.375 -6.796875 30.054688 -4.289062 27.421875 -2.4375 C 24.796875 -0.582031 21.148438 0.34375 16.484375 0.34375 Z M 16.484375 0.34375 "/></g></g></g></g></g></svg>